<mxfile host="app.diagrams.net" modified="2020-08-06T05:48:42.286Z" agent="5.0 (Macintosh; Intel Mac OS X 10_15_3) AppleWebKit/537.36 (KHTML, like Gecko) Chrome/84.0.4147.105 Safari/537.36" etag="hjoAiOM2naBcPEYwRqpu" version="13.6.0" type="github">
  <diagram id="C5RBs43oDa-KdzZeNtuy" name="Page-1">
    <mxGraphModel dx="718" dy="471" grid="1" gridSize="10" guides="1" tooltips="1" connect="1" arrows="1" fold="1" page="1" pageScale="1" pageWidth="827" pageHeight="1169" math="0" shadow="0">
      <root>
        <mxCell id="WIyWlLk6GJQsqaUBKTNV-0" />
        <mxCell id="WIyWlLk6GJQsqaUBKTNV-1" parent="WIyWlLk6GJQsqaUBKTNV-0" />
        <mxCell id="zkfFHV4jXpPFQw0GAbJ--6" value="ErpOrder" style="swimlane;fontStyle=0;align=center;verticalAlign=top;childLayout=stackLayout;horizontal=1;startSize=26;horizontalStack=0;resizeParent=1;resizeLast=0;collapsible=1;marginBottom=0;rounded=0;shadow=0;strokeWidth=1;" parent="WIyWlLk6GJQsqaUBKTNV-1" vertex="1">
          <mxGeometry x="120" y="360" width="160" height="90" as="geometry">
            <mxRectangle x="120" y="360" width="160" height="26" as="alternateBounds" />
          </mxGeometry>
        </mxCell>
        <mxCell id="JmDaQrRB5udeSFVOYitA-1" value="ErpFinancialItem&lt;br&gt;PayType:1" style="rounded=0;whiteSpace=wrap;html=1;" vertex="1" parent="WIyWlLk6GJQsqaUBKTNV-1">
          <mxGeometry x="380" y="290" width="120" height="60" as="geometry" />
        </mxCell>
        <mxCell id="JmDaQrRB5udeSFVOYitA-2" value="ErpFinancialItem&lt;br&gt;PayType:2" style="rounded=0;whiteSpace=wrap;html=1;" vertex="1" parent="WIyWlLk6GJQsqaUBKTNV-1">
          <mxGeometry x="380" y="450" width="120" height="60" as="geometry" />
        </mxCell>
        <mxCell id="JmDaQrRB5udeSFVOYitA-3" style="edgeStyle=orthogonalEdgeStyle;rounded=0;orthogonalLoop=1;jettySize=auto;html=1;exitX=1;exitY=0.5;exitDx=0;exitDy=0;entryX=0;entryY=0.5;entryDx=0;entryDy=0;" edge="1" parent="WIyWlLk6GJQsqaUBKTNV-1" source="zkfFHV4jXpPFQw0GAbJ--7" target="JmDaQrRB5udeSFVOYitA-1">
          <mxGeometry relative="1" as="geometry" />
        </mxCell>
        <mxCell id="JmDaQrRB5udeSFVOYitA-5" value="应收" style="edgeLabel;html=1;align=center;verticalAlign=middle;resizable=0;points=[];" vertex="1" connectable="0" parent="JmDaQrRB5udeSFVOYitA-3">
          <mxGeometry x="-0.0367" y="-2" relative="1" as="geometry">
            <mxPoint as="offset" />
          </mxGeometry>
        </mxCell>
        <mxCell id="JmDaQrRB5udeSFVOYitA-4" style="edgeStyle=orthogonalEdgeStyle;rounded=0;orthogonalLoop=1;jettySize=auto;html=1;exitX=1;exitY=0.5;exitDx=0;exitDy=0;entryX=0;entryY=0.5;entryDx=0;entryDy=0;" edge="1" parent="WIyWlLk6GJQsqaUBKTNV-1" source="zkfFHV4jXpPFQw0GAbJ--7" target="JmDaQrRB5udeSFVOYitA-2">
          <mxGeometry relative="1" as="geometry" />
        </mxCell>
        <mxCell id="JmDaQrRB5udeSFVOYitA-6" value="应付" style="edgeLabel;html=1;align=center;verticalAlign=middle;resizable=0;points=[];" vertex="1" connectable="0" parent="JmDaQrRB5udeSFVOYitA-4">
          <mxGeometry x="0.2254" y="1" relative="1" as="geometry">
            <mxPoint as="offset" />
          </mxGeometry>
        </mxCell>
        <mxCell id="zkfFHV4jXpPFQw0GAbJ--7" value="open_port_time&#xa;离到港日期" style="text;align=left;verticalAlign=top;spacingLeft=4;spacingRight=4;overflow=hidden;rotatable=0;points=[[0,0.5],[1,0.5]];portConstraint=eastwest;" parent="WIyWlLk6GJQsqaUBKTNV-1" vertex="1">
          <mxGeometry x="120" y="386" width="160" height="64" as="geometry" />
        </mxCell>
        <mxCell id="JmDaQrRB5udeSFVOYitA-15" value="" style="edgeStyle=orthogonalEdgeStyle;rounded=0;orthogonalLoop=1;jettySize=auto;html=1;" edge="1" parent="WIyWlLk6GJQsqaUBKTNV-1" source="JmDaQrRB5udeSFVOYitA-7" target="JmDaQrRB5udeSFVOYitA-14">
          <mxGeometry relative="1" as="geometry" />
        </mxCell>
        <mxCell id="JmDaQrRB5udeSFVOYitA-16" style="edgeStyle=orthogonalEdgeStyle;rounded=0;orthogonalLoop=1;jettySize=auto;html=1;exitX=1;exitY=0.5;exitDx=0;exitDy=0;entryX=0;entryY=0.5;entryDx=0;entryDy=0;" edge="1" parent="WIyWlLk6GJQsqaUBKTNV-1" source="JmDaQrRB5udeSFVOYitA-7" target="JmDaQrRB5udeSFVOYitA-13">
          <mxGeometry relative="1" as="geometry" />
        </mxCell>
        <mxCell id="JmDaQrRB5udeSFVOYitA-7" value="自动锁定" style="rounded=0;whiteSpace=wrap;html=1;" vertex="1" parent="WIyWlLk6GJQsqaUBKTNV-1">
          <mxGeometry x="120" y="580" width="80" height="40" as="geometry" />
        </mxCell>
        <mxCell id="JmDaQrRB5udeSFVOYitA-12" style="edgeStyle=orthogonalEdgeStyle;rounded=0;orthogonalLoop=1;jettySize=auto;html=1;exitX=1;exitY=0.5;exitDx=0;exitDy=0;entryX=0;entryY=0.5;entryDx=0;entryDy=0;" edge="1" parent="WIyWlLk6GJQsqaUBKTNV-1" source="JmDaQrRB5udeSFVOYitA-8" target="JmDaQrRB5udeSFVOYitA-9">
          <mxGeometry relative="1" as="geometry" />
        </mxCell>
        <mxCell id="JmDaQrRB5udeSFVOYitA-8" value="手动锁定" style="rounded=0;whiteSpace=wrap;html=1;" vertex="1" parent="WIyWlLk6GJQsqaUBKTNV-1">
          <mxGeometry x="120" y="670" width="80" height="40" as="geometry" />
        </mxCell>
        <mxCell id="JmDaQrRB5udeSFVOYitA-9" value="单个订单id" style="rounded=0;whiteSpace=wrap;html=1;" vertex="1" parent="WIyWlLk6GJQsqaUBKTNV-1">
          <mxGeometry x="240" y="670" width="110" height="40" as="geometry" />
        </mxCell>
        <mxCell id="JmDaQrRB5udeSFVOYitA-19" style="edgeStyle=orthogonalEdgeStyle;rounded=1;orthogonalLoop=1;jettySize=auto;html=1;exitX=0;exitY=0.5;exitDx=0;exitDy=0;endArrow=ERone;endFill=0;" edge="1" parent="WIyWlLk6GJQsqaUBKTNV-1" source="JmDaQrRB5udeSFVOYitA-10">
          <mxGeometry relative="1" as="geometry">
            <mxPoint x="380" y="600" as="targetPoint" />
          </mxGeometry>
        </mxCell>
        <mxCell id="JmDaQrRB5udeSFVOYitA-10" value="多个订单ids" style="rounded=0;whiteSpace=wrap;html=1;" vertex="1" parent="WIyWlLk6GJQsqaUBKTNV-1">
          <mxGeometry x="430" y="580" width="100" height="40" as="geometry" />
        </mxCell>
        <mxCell id="JmDaQrRB5udeSFVOYitA-17" style="edgeStyle=orthogonalEdgeStyle;rounded=1;orthogonalLoop=1;jettySize=auto;html=1;exitX=1;exitY=0.5;exitDx=0;exitDy=0;entryX=1;entryY=0.5;entryDx=0;entryDy=0;endArrow=ERone;endFill=0;" edge="1" parent="WIyWlLk6GJQsqaUBKTNV-1" source="JmDaQrRB5udeSFVOYitA-13" target="JmDaQrRB5udeSFVOYitA-14">
          <mxGeometry relative="1" as="geometry">
            <Array as="points">
              <mxPoint x="383" y="563" />
              <mxPoint x="383" y="630" />
            </Array>
          </mxGeometry>
        </mxCell>
        <mxCell id="JmDaQrRB5udeSFVOYitA-13" value="离到港日期得到的订单" style="rounded=1;whiteSpace=wrap;html=1;" vertex="1" parent="WIyWlLk6GJQsqaUBKTNV-1">
          <mxGeometry x="267.5" y="540" width="95" height="45" as="geometry" />
        </mxCell>
        <mxCell id="JmDaQrRB5udeSFVOYitA-14" value="锁定之后解锁" style="rounded=1;whiteSpace=wrap;html=1;" vertex="1" parent="WIyWlLk6GJQsqaUBKTNV-1">
          <mxGeometry x="267.5" y="610" width="92.5" height="40" as="geometry" />
        </mxCell>
        <mxCell id="JmDaQrRB5udeSFVOYitA-20" value="解锁" style="rounded=0;whiteSpace=wrap;html=1;" vertex="1" parent="WIyWlLk6GJQsqaUBKTNV-1">
          <mxGeometry x="120" y="740" width="80" height="40" as="geometry" />
        </mxCell>
      </root>
    </mxGraphModel>
  </diagram>
</mxfile>
